<?xml version="1.0" encoding="UTF-8"?>
<svg version="1.1" xmlns="http://www.w3.org/2000/svg" width="200" height="200">
<path d="M0 0 C4.60472472 2.91307513 8.96007187 6.11927638 13.28173828 9.43408203 C16.38361413 11.78492971 19.60630057 13.90483567 22.87109375 16.01953125 C24.03786247 16.79737707 25.20315111 17.57744621 26.3671875 18.359375 C29.34569303 20.35676096 32.33202629 22.34205173 35.32077026 24.32408142 C37.62030107 25.85244537 39.91420897 27.38911445 42.20715332 28.92733765 C43.350909 29.69231473 44.4968057 30.45410106 45.64489746 31.21255493 C47.26377333 32.28284585 48.87424219 33.36581945 50.484375 34.44921875 C51.42579346 35.07683105 52.36721191 35.70444336 53.3371582 36.35107422 C55.66704228 38.24436965 56.70574207 39.37099247 57.62109375 42.20703125 C56.58131011 50.42627332 53.03355774 57.53639656 49.49609375 64.95703125 C48.94633547 66.17435315 48.39685457 67.39180037 47.84765625 68.609375 C44.55055709 75.55023094 42.00787143 80.48930902 34.62109375 83.20703125 C30.2374851 84.6403037 25.83664782 85.87744424 21.36499023 87.00219727 C19.29229263 87.52363217 17.22517237 88.06376527 15.15820312 88.60742188 C5.14495752 91.20703125 5.14495752 91.20703125 1.62109375 91.20703125 C2.18755954 86.40921687 3.67065614 82.49439426 5.78125 78.19921875 C6.09057968 77.55131378 6.39990936 76.90340881 6.71861267 76.23587036 C8.03268373 73.48397095 9.36429722 70.74067191 10.69458008 67.99658203 C11.66724042 65.9837386 12.63069203 63.96666959 13.59375 61.94921875 C13.89684586 61.33247284 14.19994171 60.71572693 14.51222229 60.08029175 C16.08709886 56.77803979 16.62109375 54.96261056 16.62109375 51.20703125 C13.98109375 49.88703125 11.34109375 48.56703125 8.62109375 47.20703125 C8.36803467 48.04564697 8.11497559 48.8842627 7.85424805 49.74829102 C6.50439797 53.53433854 4.76692665 57.00530981 2.890625 60.546875 C2.1625781 61.95334497 1.43539029 63.36025992 0.70898438 64.76757812 C-0.4283679 66.96190356 -1.57082535 69.15286895 -2.72827148 71.33666992 C-3.8511797 73.46100701 -4.95056384 75.59621754 -6.046875 77.734375 C-6.39574265 78.37938461 -6.74461029 79.02439423 -7.10404968 79.68894958 C-9.47150556 84.3700564 -9.43597001 87.1470189 -8.37890625 92.20703125 C-7.09989962 95.48567201 -7.09989962 95.48567201 -5.39477539 98.75878906 C-4.935849 99.68014648 -4.935849 99.68014648 -4.46765137 100.62011719 C-3.45931212 102.63840215 -2.43691583 104.6491934 -1.4140625 106.66015625 C-0.69875789 108.08395827 0.01570933 109.50818126 0.72938538 110.93280029 C2.61211036 114.6848599 4.50707746 118.43060845 6.40441895 122.17529297 C7.92376144 125.17894711 9.4344271 128.18691972 10.94463348 131.19517517 C20.66111992 150.54949409 30.48977816 169.84065754 40.91015625 188.828125 C43.62109375 193.87240513 43.62109375 193.87240513 43.62109375 197.20703125 C39.06793453 197.30661246 34.51542223 197.3788311 29.96142578 197.42675781 C28.41541488 197.44675628 26.86947848 197.47396456 25.32373047 197.50878906 C8.49290964 197.8782196 8.49290964 197.8782196 2.62109375 193.20703125 C-2.4837967 188.14532977 -6.00162593 182.79668811 -9.0859375 176.34375 C-9.49623703 175.51228958 -9.90653656 174.68082916 -10.32926941 173.82417297 C-11.62824999 171.1864611 -12.91048658 168.54105349 -14.19140625 165.89453125 C-15.88097981 162.43792239 -17.57706229 158.98452488 -19.2734375 155.53125 C-19.69380783 154.67264374 -20.11417816 153.81403748 -20.54728699 152.92941284 C-23.83598876 146.23730498 -27.27350967 139.63287619 -30.7678833 133.04631042 C-34.4398692 126.11982433 -37.9905509 119.13757349 -41.48706055 112.12109375 C-42.47074054 110.14819757 -43.45886992 108.17756852 -44.44726562 106.20703125 C-45.08228882 104.9363266 -45.71706496 103.66549846 -46.3515625 102.39453125 C-47.19086304 100.71423828 -47.19086304 100.71423828 -48.04711914 99 C-51.14656794 92.49996439 -51.63159892 86.03973255 -49.37890625 79.14746094 C-47.97469514 75.90328426 -46.46092901 72.74324837 -44.87890625 69.58203125 C-44.33298828 68.44991211 -43.78707031 67.31779297 -43.22460938 66.15136719 C-42.1304507 63.88379099 -41.02839094 61.62000809 -39.91796875 59.36035156 C-38.55669831 56.57130192 -37.2356149 53.76984525 -35.94140625 50.94921875 C-35.58755859 50.17916504 -35.23371094 49.40911133 -34.86914062 48.61572266 C-34.23374298 47.23056832 -33.59952374 45.84487246 -32.96679688 44.45849609 C-27.58244373 32.93053551 -27.58244373 32.93053551 -21.37890625 30.20703125 C-18.56640625 30.01953125 -18.56640625 30.01953125 -16.37890625 30.20703125 C-16.37890625 29.54703125 -16.37890625 28.88703125 -16.37890625 28.20703125 C-17.06299561 27.96460693 -17.74708496 27.72218262 -18.4519043 27.47241211 C-21.93754306 25.96552532 -25.03850726 24.02469327 -28.2109375 21.9609375 C-28.84754807 21.54915756 -29.48415863 21.13737762 -30.14006042 20.71311951 C-31.47701517 19.84557179 -32.81238403 18.97557571 -34.14624023 18.10327148 C-36.19545033 16.76689394 -38.25458634 15.44682729 -40.31445312 14.12695312 C-41.61392013 13.2809284 -42.9127708 12.4339561 -44.2109375 11.5859375 C-44.82959183 11.19209366 -45.44824615 10.79824982 -46.08564758 10.39247131 C-47.79614258 9.26000977 -47.79614258 9.26000977 -50.37890625 7.20703125 C-50.37890625 6.21703125 -50.37890625 5.22703125 -50.37890625 4.20703125 C-13.60383679 -7.74259626 -13.60383679 -7.74259626 0 0 Z " fill="#CA1EC4" transform="translate(96.37890625,2.79296875)"/>
<path d="M0 0 C3.41162231 3.06820607 5.29646786 6.11059979 7.32470703 10.21118164 C7.63109604 10.82498184 7.93748505 11.43878204 8.25315857 12.07118225 C9.26223457 14.09719952 10.25992306 16.12860913 11.2578125 18.16015625 C11.96724156 19.58903914 12.67745068 21.01753498 13.38839722 22.44566345 C15.26232645 26.21444869 17.12698282 29.98774324 18.98931885 33.76226807 C21.93933343 39.7372882 24.90300896 45.70555908 27.86623001 51.67403793 C28.58516357 53.12220077 29.30383001 54.57049624 30.02222824 56.01892471 C35.51992655 67.09988196 41.12981059 78.11067032 47 89 C47.52899902 89.98363525 48.05799805 90.96727051 48.60302734 91.98071289 C50.93570937 96.30652264 50.93570937 96.30652264 53.2890625 100.62109375 C56 105.66537388 56 105.66537388 56 109 C51.44684078 109.09958121 46.89432848 109.17179985 42.34033203 109.21972656 C40.79432113 109.23972503 39.24838473 109.26693331 37.70263672 109.30175781 C20.11917291 109.6877086 20.11917291 109.6877086 13.1809082 103.33422852 C8.35410709 98.26624943 5.24636929 92.43035454 2.1875 86.1875 C1.71119141 85.26646484 1.23488281 84.34542969 0.74414062 83.39648438 C-2.03586689 77.80909937 -3.67936286 72.71154889 -4.60327148 66.54321289 C-4.9573274 64.27355104 -5.44265674 62.15171037 -6.0703125 59.9453125 C-11.86399406 38.95931039 -9.87614274 19.46895352 0 0 Z " fill="#9D2596" transform="translate(84,91)"/>
<path d="M0 0 C4.15859013 1.47090873 7.63276355 3.58757538 11.25 6.0625 C11.8689917 6.48225098 12.4879834 6.90200195 13.12573242 7.33447266 C14.56256312 8.30917878 15.99826566 9.28554909 17.43310547 10.26318359 C19.87077839 11.91256586 22.31943845 13.54457504 24.77218628 15.1714325 C27.05270104 16.68601173 29.32779195 18.20862093 31.60217285 19.73239136 C32.73923902 20.49202476 33.87831472 21.24865906 35.01940918 22.00222778 C36.63979093 23.07355627 38.25170246 24.15766202 39.86328125 25.2421875 C40.80469971 25.8697998 41.74611816 26.49741211 42.71606445 27.14404297 C45.04594853 29.0373384 46.08464832 30.16396122 47 33 C45.96021636 41.21924207 42.41246399 48.32936531 38.875 55.75 C38.32524172 56.9673219 37.77576082 58.18476912 37.2265625 59.40234375 C33.92946334 66.34319969 31.38677768 71.28227777 24 74 C19.61639135 75.43327245 15.21555407 76.67041299 10.74389648 77.79516602 C8.67119888 78.31660092 6.60407862 78.85673402 4.53710938 79.40039062 C-5.47613623 82 -5.47613623 82 -9 82 C-8.43090474 77.21467497 -6.96334401 73.28683195 -4.875 68.9921875 C-4.56804199 68.34428253 -4.26108398 67.69637756 -3.94482422 67.02883911 C-2.970248 64.97412203 -1.98584067 62.92433318 -1 60.875 C-0.01553041 58.81792092 0.96671629 56.7598494 1.94482422 54.69973755 C2.55181403 53.42233069 3.16264571 52.14674026 3.77783203 50.8732605 C5.1700489 47.95321925 6.38506972 45.18600898 7 42 C7.99 42 8.98 42 10 42 C10.12375 41.13375 10.2475 40.2675 10.375 39.375 C11 36 11 36 12.0625 33.125 C14.47318608 25.08937973 12.53433278 18.39612771 9 11 C7.46376483 8.81097368 5.81956049 6.97119053 4 5 C4 4.34 4 3.68 4 3 C3.01 3 2.02 3 1 3 C0.67 2.01 0.34 1.02 0 0 Z " fill="#C233F9" transform="translate(107,12)"/>
<path d="M0 0 C8.56000196 5.92057943 8.56000196 5.92057943 9.65576172 9.42041016 C9.81371216 10.32388184 9.81371216 10.32388184 9.97485352 11.24560547 C10.96485352 11.24560547 11.95485352 11.24560547 12.97485352 11.24560547 C19.17057669 17.99049501 23.66784018 26.64899209 23.34594727 35.98388672 C22.53770473 40.9099123 20.71531638 45.58365136 18.97485352 50.24560547 C15.23997574 49.74762177 13.16247717 49.37068791 9.97485352 47.24560547 C9.97485352 46.58560547 9.97485352 45.92560547 9.97485352 45.24560547 C9.31485352 45.24560547 8.65485352 45.24560547 7.97485352 45.24560547 C8.35911047 41.4030359 9.26602507 38.42589734 11.02172852 35.02685547 C11.38621094 34.3159375 11.75069336 33.60501953 12.1262207 32.87255859 C12.40626953 32.33566406 12.68631836 31.79876953 12.97485352 31.24560547 C12.21454834 31.2467334 11.45424316 31.24786133 10.67089844 31.24902344 C7.16718977 31.23678666 3.66558578 31.17896228 0.16235352 31.12060547 C-1.63105469 31.12447266 -1.63105469 31.12447266 -3.46069336 31.12841797 C-12.22842857 30.93729568 -17.76214809 29.05142353 -25.02514648 24.24560547 C-26.14171631 23.54242187 -27.25828613 22.83923828 -28.40869141 22.11474609 C-31.42946468 20.20487347 -34.41572954 18.24777476 -37.390625 16.26733398 C-39.24164524 15.03885975 -41.10283101 13.82685148 -42.96459961 12.61474609 C-44.1455857 11.83251974 -45.32594934 11.04935262 -46.50561523 10.26513672 C-47.56675537 9.56493408 -48.62789551 8.86473145 -49.72119141 8.14331055 C-50.48149658 7.51706787 -51.24180176 6.8908252 -52.02514648 6.24560547 C-52.02514648 5.25560547 -52.02514648 4.26560547 -52.02514648 3.24560547 C-14.37004108 -8.9899794 -14.37004108 -8.9899794 0 0 Z " fill="#6307B5" transform="translate(98.025146484375,3.75439453125)"/>
<path d="M0 0 C0.66 0 1.32 0 2 0 C2.29583984 1.19109375 2.29583984 1.19109375 2.59765625 2.40625 C3.77824314 5.2988409 3.77824314 5.2988409 6.93359375 5.96875 C8.08988281 6.1440625 9.24617188 6.319375 10.4375 6.5 C16.4057697 7.40691026 16.4057697 7.40691026 19.03515625 10.03125 C21.7876139 18.50035048 15.43694663 28.2780074 11.875 35.75 C11.32524172 36.9673219 10.77576082 38.18476912 10.2265625 39.40234375 C6.95822551 46.2826513 4.24643888 51.08099534 -3 54 C-5.93190422 54.97730141 -8.3084586 55.26475847 -11.375 55.5 C-14.99283504 55.77906166 -18.45336075 56.2261878 -22 57 C-22 56.34 -22 55.68 -22 55 C-20.68 55 -19.36 55 -18 55 C-17.731875 54.113125 -17.46375 53.22625 -17.1875 52.3125 C-16 49 -16 49 -14.625 46.75 C-12.77586107 43.62068796 -11.54617699 40.4566418 -10.2421875 37.0703125 C-9.29812943 34.73688594 -8.31100916 32.46330684 -7.2578125 30.1796875 C-2.67977387 20.21424643 0.4950751 11.13918971 0 0 Z " fill="#AB32EF" transform="translate(134,32)"/>
<path d="M0 0 C5.18239912 4.70807308 7.67237258 10.68592508 10.75 16.875 C11.35199219 18.04675781 11.95398438 19.21851563 12.57421875 20.42578125 C13.42693359 22.12927734 13.42693359 22.12927734 14.296875 23.8671875 C14.81604492 24.89956543 15.33521484 25.93194336 15.87011719 26.99560547 C17.0799355 30.21255104 17.2199589 32.59317992 17 36 C15.35 35.67 13.7 35.34 12 35 C12.0825 33.80375 12.165 32.6075 12.25 31.375 C12.25 26.91647122 11.02609273 24.36232526 8 21 C6.68 21 5.36 21 4 21 C4.2475 19.948125 4.495 18.89625 4.75 17.8125 C5.3889842 13.94633751 5.3889842 13.94633751 3.0625 11.0625 C2.381875 10.381875 1.70125 9.70125 1 9 C-1.30142435 10.78174788 -2.80034391 12.16304165 -3.48828125 15.046875 C-3.72323102 17.0246611 -3.86751458 19.01271872 -4 21 C-4.66 21 -5.32 21 -6 21 C-5.98839844 21.62648438 -5.97679688 22.25296875 -5.96484375 22.8984375 C-5.95130859 24.12433594 -5.95130859 24.12433594 -5.9375 25.375 C-5.92589844 26.18710938 -5.91429688 26.99921875 -5.90234375 27.8359375 C-6 30 -6 30 -7 32 C-6.34 32.33 -5.68 32.66 -5 33 C-5.66 33 -6.32 33 -7 33 C-7 33.99 -7 34.98 -7 36 C-6.34 36.33 -5.68 36.66 -5 37 C-5.185625 37.94875 -5.37125 38.8975 -5.5625 39.875 C-6.28686632 42.89868793 -6.28686632 42.89868793 -5 45 C-5.165 45.78375 -5.33 46.5675 -5.5 47.375 C-6.03629217 50.1905339 -5.73782231 51.28982916 -5 54 C-4.6337001 55.91438489 -4.28013598 57.83123849 -3.9375 59.75 C-3.76089844 60.73484375 -3.58429688 61.7196875 -3.40234375 62.734375 C-3.26957031 63.48203125 -3.13679688 64.2296875 -3 65 C-5 64 -5 64 -6.0703125 60.921875 C-11.7567254 39.57684356 -10.03657086 19.78520731 0 0 Z " fill="#660873" transform="translate(84,91)"/>
<path d="M0 0 C2 2 2 2 2 5 C2.99 5.33 3.98 5.66 5 6 C8.48333766 13.9166765 4.79233127 22.52054123 2 30 C-1.73487777 29.5020163 -3.81237635 29.12508244 -7 27 C-7 26.34 -7 25.68 -7 25 C-7.66 25 -8.32 25 -9 25 C-8.52412884 18.97229862 -5.80277043 14.23321711 -3 9 C-5.31 9 -7.62 9 -10 9 C-10 8.67 -10 8.34 -10 8 C-6.92382812 7.70703125 -6.92382812 7.70703125 -3.84765625 7.4140625 C-3.23792969 7.27742188 -2.62820312 7.14078125 -2 7 C-1.67 6.34 -1.34 5.68 -1 5 C-1.66 5 -2.32 5 -3 5 C-1.125 1.125 -1.125 1.125 0 0 Z " fill="#46037F" transform="translate(115,24)"/>
<path d="M0 0 C-0.86625 0.309375 -0.86625 0.309375 -1.75 0.625 C-4.79378719 2.48509217 -6.05485833 5.05091424 -8 8 C-8.99 8.33 -9.98 8.66 -11 9 C-12.40538479 12.01153884 -13.25721378 13.97114489 -12.4375 17.25 C-11.07095966 19.21133127 -11.07095966 19.21133127 -8.5 19.9375 C-6 21 -6 21 -4.6875 23.625 C-4.460625 24.40875 -4.23375 25.1925 -4 26 C-9.82576203 23.85647933 -14.66641489 20.48055116 -19.8125 17.0625 C-20.79154297 16.42892578 -21.77058594 15.79535156 -22.77929688 15.14257812 C-23.70419922 14.52962891 -24.62910156 13.91667969 -25.58203125 13.28515625 C-26.42999268 12.72707275 -27.2779541 12.16898926 -28.15161133 11.59399414 C-28.76157959 11.06797607 -29.37154785 10.54195801 -30 10 C-30 9.01 -30 8.02 -30 7 C-25.94052163 5.82263944 -21.87697071 4.6599977 -17.8125 3.5 C-16.66201172 3.16613281 -15.51152344 2.83226562 -14.32617188 2.48828125 C-13.21435547 2.17246094 -12.10253906 1.85664062 -10.95703125 1.53125 C-9.93585205 1.23798828 -8.91467285 0.94472656 -7.86254883 0.64257812 C-5.13085047 0.029373 -2.78697263 -0.1253578 0 0 Z " fill="#7C0AE3" transform="translate(76,0)"/>
<path d="M0 0 C0.33 0 0.66 0 1 0 C0.97905273 0.69859131 0.95810547 1.39718262 0.93652344 2.11694336 C0.60167215 15.02037419 0.51786213 27.05755283 4.04296875 39.53125 C5.19735215 43.71530085 5.68599206 47.68239083 6 52 C2.00580294 46.94478572 -0.79853302 41.23338985 -3.8125 35.5625 C-4.43576172 34.43005859 -5.05902344 33.29761719 -5.70117188 32.13085938 C-6.28060547 31.03708984 -6.86003906 29.94332031 -7.45703125 28.81640625 C-8.2610437 27.32282593 -8.2610437 27.32282593 -9.08129883 25.79907227 C-10 23 -10 23 -9.2878418 20.19116211 C-8 18 -8 18 -5.9375 17.125 C-5.298125 17.08375 -4.65875 17.0425 -4 17 C-3.67 17.33 -3.34 17.66 -3 18 C-2.86722656 17.03578125 -2.73445313 16.0715625 -2.59765625 15.078125 C-2.42105469 13.81484375 -2.24445313 12.5515625 -2.0625 11.25 C-1.80146484 9.37054688 -1.80146484 9.37054688 -1.53515625 7.453125 C-1.13950662 4.90017407 -0.69553578 2.4813709 0 0 Z " fill="#C534CB" transform="translate(75,112)"/>
<path d="M0 0 C3 1 3 1 4.21826172 2.81933594 C6.61662762 9.50959334 1.36624125 18.1987858 -1.40625 24.14453125 C-1.9734375 25.33433594 -2.540625 26.52414063 -3.125 27.75 C-3.67475828 28.9673219 -4.22423918 30.18476912 -4.7734375 31.40234375 C-8.00688732 38.20920892 -10.7332019 43.22196964 -18 46 C-21.5 46.8125 -21.5 46.8125 -24 47 C-23.34 45.35 -22.68 43.7 -22 42 C-20.02 42 -18.04 42 -16 42 C-15.34 40.68 -14.68 39.36 -14 38 C-13.34 38.33 -12.68 38.66 -12 39 C-12.04125 38.236875 -12.0825 37.47375 -12.125 36.6875 C-12 34 -12 34 -10 31 C-9.60612212 28.67612053 -9.26513915 26.34206251 -9 24 C-7.35 23.67 -5.7 23.34 -4 23 C-4.103125 22.319375 -4.20625 21.63875 -4.3125 20.9375 C-3.97154606 17.73253297 -3.4581569 17.09244762 -1.5 14.6875 C1.60676687 10.67678684 1.49831076 7.98310763 1 3 C0.67 2.01 0.34 1.02 0 0 Z " fill="#AC54E4" transform="translate(149,40)"/>
<path d="M0 0 C2.31 0 4.62 0 7 0 C7.33 2.97 7.66 5.94 8 9 C8.99 8.67 9.98 8.34 11 8 C11 10.97 11 13.94 11 17 C11.99 16.67 12.98 16.34 14 16 C13.7525 16.825 13.505 17.65 13.25 18.5 C12.95017971 22.69748403 13.99856338 24.53994768 16.08984375 28.0703125 C17 30 17 30 17 34 C17.66 34.33 18.32 34.66 19 35 C18.01 35 17.02 35 16 35 C13.71368673 30.50148102 11.43525447 25.99909225 9.1640625 21.49291992 C8.39018111 19.96025172 7.61414997 18.42866701 6.8359375 16.89819336 C5.71829564 14.69926151 4.60842013 12.4965604 3.5 10.29296875 C3.15001953 9.60849167 2.80003906 8.92401459 2.43945312 8.21879578 C0.97285259 5.28663213 0 3.32496818 0 0 Z " fill="#B918B2" transform="translate(47,96)"/>
<path d="M0 0 C2.39027326 3.18703102 4.04638185 5.86946013 5.77734375 9.39453125 C6.29103516 10.43287109 6.80472656 11.47121094 7.33398438 12.54101562 C7.86314453 13.62060547 8.39230469 14.70019531 8.9375 15.8125 C12.9396942 24.0599606 12.9396942 24.0599606 17.37890625 32.07421875 C19 35 19 35 19 38 C17.02 38 15.04 38 13 38 C13.33 35.36 13.66 32.72 14 30 C12.35 29.67 10.7 29.34 9 29 C9 27.35 9 25.7 9 24 C8.34 24 7.68 24 7 24 C6.87625 22.7625 6.7525 21.525 6.625 20.25 C6.24253695 17.1237803 5.69450477 14.71120763 4 12 C3.01 12 2.02 12 1 12 C1 11.34 1 10.68 1 10 C0.34 10 -0.32 10 -1 10 C-0.67 6.7 -0.34 3.4 0 0 Z " fill="#DA5EC6" transform="translate(121,162)"/>
<path d="M0 0 C5.18239912 4.70807308 7.67237258 10.68592508 10.75 16.875 C11.35199219 18.04675781 11.95398438 19.21851563 12.57421875 20.42578125 C13.14269531 21.56144531 13.71117188 22.69710937 14.296875 23.8671875 C14.81604492 24.89956543 15.33521484 25.93194336 15.87011719 26.99560547 C17.0799355 30.21255104 17.2199589 32.59317992 17 36 C15.35 35.67 13.7 35.34 12 35 C12.0825 33.80375 12.165 32.6075 12.25 31.375 C12.25 26.91647122 11.02609273 24.36232526 8 21 C6.68 21 5.36 21 4 21 C4.226875 19.948125 4.45375 18.89625 4.6875 17.8125 C5.0409544 13.50035637 4.34033637 12.46369782 2 9 C2 7.68 2 6.36 2 5 C0.68 5.33 -0.64 5.66 -2 6 C-1.34 4.02 -0.68 2.04 0 0 Z " fill="#5A2C6A" transform="translate(84,91)"/>
<path d="M0 0 C0.33 0 0.66 0 1 0 C1.33 5.28 1.66 10.56 2 16 C1.01 16 0.02 16 -1 16 C-0.67 17.32 -0.34 18.64 0 20 C-2.99980937 18.50009532 -3.71564821 16.18964596 -5.25 13.25 C-5.81203125 12.20328125 -6.3740625 11.1565625 -6.953125 10.078125 C-8 7 -8 7 -7.30078125 4.1640625 C-6 2 -6 2 -3.9375 1.125 C-3.298125 1.08375 -2.65875 1.0425 -2 1 C-1.67 1.33 -1.34 1.66 -1 2 C-0.67 1.34 -0.34 0.68 0 0 Z " fill="#DA4EDD" transform="translate(73,128)"/>
<path d="M0 0 C5.94 0 11.88 0 18 0 C16.02 4.95 14.04 9.9 12 15 C12.66 15.33 13.32 15.66 14 16 C13.01 16 12.02 16 11 16 C10.7525 16.825 10.505 17.65 10.25 18.5 C8.81295189 22.52373471 6.97645485 26.21979024 5 30 C4.67 30 4.34 30 4 30 C4 27.69 4 25.38 4 23 C4.99 23 5.98 23 7 23 C6.9175 22.360625 6.835 21.72125 6.75 21.0625 C7.00497599 17.93904406 7.67685557 16.4397422 9.0625 13.6875 C11.31849709 8.96969555 11.10262786 6.05371102 10 1 C6.7 1 3.4 1 0 1 C0 0.67 0 0.34 0 0 Z M13 2 C12.67 2.99 12.34 3.98 12 5 C12.66 5 13.32 5 14 5 C13.67 4.01 13.34 3.02 13 2 Z " fill="#CF2CD2" transform="translate(94,34)"/>
<path d="M0 0 C0.66 0.33 1.32 0.66 2 1 C2 1.33 2 1.66 2 2 C3.32 2.33 4.64 2.66 6 3 C5.34 3 4.68 3 4 3 C3.67 3.99 3.34 4.98 3 6 C1.35 6.33 -0.3 6.66 -2 7 C-1.34 9.31 -0.68 11.62 0 14 C-0.78375 14.5775 -1.5675 15.155 -2.375 15.75 C-4.80047244 17.82897637 -5.85694417 19.09040333 -7 22 C-7.99 22 -8.98 22 -10 22 C-10 22.99 -10 23.98 -10 25 C-10.66 25 -11.32 25 -12 25 C-10.48611133 19.97735894 -8.36904087 15.46903867 -6 10.8125 C-5.64421875 10.10158203 -5.2884375 9.39066406 -4.921875 8.65820312 C-3.39793609 5.63591383 -1.88290631 2.82435946 0 0 Z " fill="#B73FAE" transform="translate(70,36)"/>
<path d="M0 0 C0.33 0 0.66 0 1 0 C1.33 2.31 1.66 4.62 2 7 C1.01 7.33 0.02 7.66 -1 8 C-1 8.66 -1 9.32 -1 10 C4.40728749 11.10352806 7.77350852 10.58661348 13 9 C15.33215844 8.92596322 17.66860788 8.90484114 20 9 C17.22815386 10.47962758 14.59467969 11.48983706 11.55859375 12.2890625 C10.72779297 12.50820312 9.89699219 12.72734375 9.04101562 12.953125 C8.18185547 13.17484375 7.32269531 13.3965625 6.4375 13.625 C5.57447266 13.85445312 4.71144531 14.08390625 3.82226562 14.3203125 C-2.61153739 16 -2.61153739 16 -6 16 C-5.52412884 9.97229862 -2.80277043 5.23321711 0 0 Z " fill="#C46CE3" transform="translate(104,78)"/>
<path d="M0 0 C0.66 0.99 1.32 1.98 2 3 C0.92210854 7.42307186 -1.06013702 11.3350507 -3.125 15.375 C-3.66382812 16.43460938 -4.20265625 17.49421875 -4.7578125 18.5859375 C-5.16773437 19.38257812 -5.57765625 20.17921875 -6 21 C-6.33 21 -6.66 21 -7 21 C-7.33 17.7 -7.66 14.4 -8 11 C-7.34 11 -6.68 11 -6 11 C-6 9.35 -6 7.7 -6 6 C-6.66 6 -7.32 6 -8 6 C-7.67 5.01 -7.34 4.02 -7 3 C-4.03 3.495 -4.03 3.495 -1 4 C-0.67 2.68 -0.34 1.36 0 0 Z " fill="#D83BD2" transform="translate(96,61)"/>
<path d="M0 0 C1.22589844 0.01353516 1.22589844 0.01353516 2.4765625 0.02734375 C3.41628906 0.04474609 3.41628906 0.04474609 4.375 0.0625 C3.385 0.5575 3.385 0.5575 2.375 1.0625 C2.7153125 1.9596875 2.7153125 1.9596875 3.0625 2.875 C3.375 5.0625 3.375 5.0625 2.125 6.75 C0.375 8.0625 0.375 8.0625 -2.625 9.0625 C-3.96636367 9.71285814 -5.30032254 10.3787955 -6.625 11.0625 C-7.615 11.5575 -7.615 11.5575 -8.625 12.0625 C-8.955 12.7225 -9.285 13.3825 -9.625 14.0625 C-9.955 12.0825 -10.285 10.1025 -10.625 8.0625 C-9.820625 7.77375 -9.01625 7.485 -8.1875 7.1875 C-5.4923532 6.32987432 -5.4923532 6.32987432 -4.625 4.0625 C-5.945 4.3925 -7.265 4.7225 -8.625 5.0625 C-6.51899199 0.39919656 -5.01778996 -0.07168271 0 0 Z " fill="#B617AC" transform="translate(78.625,34.9375)"/>
<path d="M0 0 C1.59333113 0.25670335 3.1759354 0.58123982 4.75 0.9375 C8.25533307 1.72987319 11.4034078 2.10996775 15 2 C15.33 4.64 15.66 7.28 16 10 C10.1364987 9.5956206 6.6949554 8.82147533 2 5 C0.125 2.75 0.125 2.75 -1 1 C-0.67 0.67 -0.34 0.34 0 0 Z " fill="#DC43BF" transform="translate(96,190)"/>
<path d="M0 0 C0.99 0.33 1.98 0.66 3 1 C2.67 1.33 2.34 1.66 2 2 C1.84230651 3.41340094 1.72365444 4.83125522 1.625 6.25 C1.24011394 10.21874313 0.30724108 12.68961062 -2 16 C-2 16.66 -2 17.32 -2 18 C-2.99 18.33 -3.98 18.66 -5 19 C-5.33 21.97 -5.66 24.94 -6 28 C-8 26 -8 26 -8.23046875 23.72265625 C-8.21628906 22.84480469 -8.20210937 21.96695313 -8.1875 21.0625 C-8.18105469 20.18722656 -8.17460938 19.31195313 -8.16796875 18.41015625 C-8 16 -8 16 -7 13 C-6.34 12.67 -5.68 12.34 -5 12 C-4.7834375 11.071875 -4.7834375 11.071875 -4.5625 10.125 C-4 8 -4 8 -2.5 6.5625 C-0.53426922 4.51486377 -0.37331439 2.76252651 0 0 Z " fill="#B214A6" transform="translate(55,70)"/>
<path d="M0 0 C3.37559685 0.58199946 4.62752283 1.62752283 7 4 C8.2375 4.495 8.2375 4.495 9.5 5 C12.01929235 6.00771694 13.24899945 6.97252568 15 9 C15.66 8.67 16.32 8.34 17 8 C17.3403125 8.928125 17.3403125 8.928125 17.6875 9.875 C18.8440732 12.23244106 18.8440732 12.23244106 21.5 12.9375 C24 14 24 14 25.3125 16.625 C25.539375 17.40875 25.76625 18.1925 26 19 C20.17423797 16.85647933 15.33358511 13.48055116 10.1875 10.0625 C9.20845703 9.42892578 8.22941406 8.79535156 7.22070312 8.14257812 C6.29580078 7.52962891 5.37089844 6.91667969 4.41796875 6.28515625 C3.57000732 5.72707275 2.7220459 5.16898926 1.84838867 4.59399414 C1.23842041 4.06797607 0.62845215 3.54195801 0 3 C0 2.01 0 1.02 0 0 Z " fill="#9C53D4" transform="translate(46,7)"/>
<path d="M0 0 C2.1519437 3.22791555 2.20086443 4.28400809 2 8 C0.68 8.33 -0.64 8.66 -2 9 C-2.33 11.31 -2.66 13.62 -3 16 C-3.99 16.33 -4.98 16.66 -6 17 C-6.33 18.65 -6.66 20.3 -7 22 C-7.66 22 -8.32 22 -9 22 C-9.33 26.29 -9.66 30.58 -10 35 C-10.33 35 -10.66 35 -11 35 C-11.90640758 25.8111787 -9.56393179 19.4653263 -5.5 11.3125 C-4.97535156 10.21744141 -4.45070313 9.12238281 -3.91015625 7.99414062 C-2.62546023 5.31963709 -1.32215165 2.65613106 0 0 Z " fill="#C86DC3" transform="translate(57,61)"/>
<path d="M0 0 C3 1 3 1 4.22607422 2.80102539 C6.0526788 7.99100251 3.20135041 13.81738445 1.0546875 18.59765625 C0.33759071 20.09052139 -0.38902643 21.57885009 -1.125 23.0625 C-1.49753906 23.83271484 -1.87007812 24.60292969 -2.25390625 25.39648438 C-3.16081739 27.26844199 -4.07919617 29.13483689 -5 31 C-5.33 31 -5.66 31 -6 31 C-6 28.36 -6 25.72 -6 23 C-5.34 23 -4.68 23 -4 23 C-4.1546875 21.9790625 -4.1546875 21.9790625 -4.3125 20.9375 C-3.97154606 17.73253297 -3.4581569 17.09244762 -1.5 14.6875 C1.60676687 10.67678684 1.49831076 7.98310763 1 3 C0.67 2.01 0.34 1.02 0 0 Z " fill="#B169DC" transform="translate(149,40)"/>
<path d="M0 0 C-0.86625 0.309375 -0.86625 0.309375 -1.75 0.625 C-4.81410544 2.49750888 -6.15539968 4.96958519 -8 8 C-11.3 7.01 -14.6 6.02 -18 5 C-18 5.66 -18 6.32 -18 7 C-20.64 7 -23.28 7 -26 7 C-22.20694064 4.47129376 -18.48844659 3.56818412 -14.125 2.375 C-12.92037109 2.03082031 -12.92037109 2.03082031 -11.69140625 1.6796875 C-7.71242846 0.57842182 -4.17099893 -0.32084607 0 0 Z " fill="#974CD8" transform="translate(76,0)"/>
<path d="M0 0 C2.77879284 3.41150259 4.73754269 7.14223092 6.6875 11.0625 C7.00783203 11.68705078 7.32816406 12.31160156 7.65820312 12.95507812 C9.09841353 15.83242812 10 17.73832963 10 21 C9.01 21 8.02 21 7 21 C7 20.34 7 19.68 7 19 C6.34 19 5.68 19 5 19 C5 18.34 5 17.68 5 17 C4.34 17 3.68 17 3 17 C3.061875 15.948125 3.12375 14.89625 3.1875 13.8125 C2.9868749 9.73312304 2.11771969 8.35305617 0 5 C-0.1875 2.1875 -0.1875 2.1875 0 0 Z M1 17 C3 18 3 18 3 18 Z " fill="#844187" transform="translate(101,123)"/>
<path d="M0 0 C4.79821659 1.62114502 8.6672859 4.29276759 12.8125 7.125 C13.50537109 7.59292969 14.19824219 8.06085937 14.91210938 8.54296875 C16.61091105 9.69112437 18.30584864 10.84499367 20 12 C15.74052324 13.27691098 13.16314404 12.67986514 9 11 C6.91684226 9.13036593 5.60948049 7.34106253 4 5 C4 4.34 4 3.68 4 3 C3.01 3 2.02 3 1 3 C0.67 2.01 0.34 1.02 0 0 Z " fill="#BB3DE4" transform="translate(107,12)"/>
<path d="M0 0 C3.79253725 4.5510447 6.82455335 9.54374688 7.25 15.5 C7.1675 16.325 7.085 17.15 7 18 C5.35 17.67 3.7 17.34 2 17 C2.061875 15.7625 2.12375 14.525 2.1875 13.25 C2.21444687 9.41680738 1.38153191 8.0028011 -1 5 C-0.6875 2.25 -0.6875 2.25 0 0 Z " fill="#6E2776" transform="translate(94,109)"/>
<path d="M0 0 C2.99332739 0.9977758 3.94766315 1.7522025 6 4 C6.66 3.67 7.32 3.34 8 3 C7.7525 3.825 7.505 4.65 7.25 5.5 C6.95017971 9.69748403 7.99856338 11.53994768 10.08984375 15.0703125 C11 17 11 17 11 21 C11.66 21.33 12.32 21.66 13 22 C12.01 22 11.02 22 10 22 C8.32686677 18.71158124 6.66260393 15.41875318 5 12.125 C4.52304687 11.18785156 4.04609375 10.25070313 3.5546875 9.28515625 C3.10351562 8.38925781 2.65234375 7.49335937 2.1875 6.5703125 C1.76855469 5.74289551 1.34960938 4.91547852 0.91796875 4.06298828 C0 2 0 2 0 0 Z " fill="#D273D1" transform="translate(53,109)"/>
<path d="M0 0 C5.03382098 1.6481544 9.0260491 4.60648051 13.3125 7.625 C14.05306641 8.140625 14.79363281 8.65625 15.55664062 9.1875 C17.37422697 10.45394726 19.18850838 11.72485759 21 13 C17.70345061 14.06012381 16.91928266 13.97494979 13.375 12.875 C10 11 10 11 8.5625 8.3125 C8.376875 7.549375 8.19125 6.78625 8 6 C7.01 6 6.02 6 5 6 C5 5.34 5 4.68 5 4 C4.360625 3.896875 3.72125 3.79375 3.0625 3.6875 C2.381875 3.460625 1.70125 3.23375 1 3 C0.67 2.01 0.34 1.02 0 0 Z " fill="#B266E3" transform="translate(128,26)"/>
<path d="M0 0 C0.33 0 0.66 0 1 0 C1.06058594 1.31355469 1.12117188 2.62710938 1.18359375 3.98046875 C1.26803256 5.71615541 1.35267888 7.45183198 1.4375 9.1875 C1.47681641 10.05181641 1.51613281 10.91613281 1.55664062 11.80664062 C1.79944625 16.68143041 2.29251806 21.21463801 3.49609375 25.953125 C4.13167384 28.53486117 4.59514204 31.13279544 5.0625 33.75 C5.23910156 34.73484375 5.41570312 35.7196875 5.59765625 36.734375 C5.73042969 37.48203125 5.86320312 38.2296875 6 39 C4 38 4 38 2.9296875 34.921875 C2.56171138 33.53550288 2.21145593 32.14435702 1.875 30.75 C1.69614258 30.01015869 1.51728516 29.27031738 1.33300781 28.50805664 C-0.71270636 19.0773143 -0.33752378 9.59130087 0 0 Z " fill="#7F0C89" transform="translate(75,117)"/>
<path d="M0 0 C0.99 0 1.98 0 3 0 C2.34728444 3.51705958 1.48606976 6.89325077 0.4375 10.3125 C0.16808594 11.19550781 -0.10132812 12.07851562 -0.37890625 12.98828125 C-0.58386719 13.65214844 -0.78882812 14.31601563 -1 15 C-1.66 15 -2.32 15 -3 15 C-3.33 15.66 -3.66 16.32 -4 17 C-5.15703519 12.95037684 -4.92492885 10.74854566 -3 7 C-2.34 6.34 -1.68 5.68 -1 5 C-0.35232207 2.42938689 -0.35232207 2.42938689 0 0 Z " fill="#CB2FCC" transform="translate(78,97)"/>
<path d="M0 0 C0.66 1.32 1.32 2.64 2 4 C-2.58921384 7.15654048 -6.29370646 9.57202798 -12 10 C-11.34 8.35 -10.68 6.7 -10 5 C-8.02 5 -6.04 5 -4 5 C-3.34 3.68 -2.68 2.36 -2 1 C-1.34 1.33 -0.68 1.66 0 2 C0 1.34 0 0.68 0 0 Z " fill="#B665DF" transform="translate(137,77)"/>
<path d="M0 0 C3.8770455 5.169394 5.29517577 7.50613311 5 14 C4.67 13.34 4.34 12.68 4 12 C3.01 12 2.02 12 1 12 C1 11.34 1 10.68 1 10 C0.34 10 -0.32 10 -1 10 C-0.67 6.7 -0.34 3.4 0 0 Z " fill="#C443B4" transform="translate(121,162)"/>
<path d="M0 0 C0.66 0 1.32 0 2 0 C2 1.32 2 2.64 2 4 C2.66 4 3.32 4 4 4 C3.01 6.97 2.02 9.94 1 13 C0.01 12.34 -0.98 11.68 -2 11 C-2.40843923 8.28796348 -2.13336867 5.7562858 -2 3 C-1.34 3 -0.68 3 0 3 C0 2.01 0 1.02 0 0 Z " fill="#B915AD" transform="translate(60,58)"/>
<path d="M0 0 C0.66 0 1.32 0 2 0 C2 0.99 2 1.98 2 3 C2.66 3.33 3.32 3.66 4 4 C3.01 4 2.02 4 1 4 C0.7525 4.825 0.505 5.65 0.25 6.5 C-1.18704811 10.52373471 -3.02354515 14.21979024 -5 18 C-5.33 18 -5.66 18 -6 18 C-6 15.69 -6 13.38 -6 11 C-5.01 11 -4.02 11 -3 11 C-3.061875 10.29875 -3.12375 9.5975 -3.1875 8.875 C-2.95743899 5.34739788 -1.70799432 3.06015649 0 0 Z " fill="#DC7ADA" transform="translate(104,46)"/>
<path d="M0 0 C0.99 0 1.98 0 3 0 C2.59627165 2.82609847 2.19372897 3.83048716 0 5.75 C-2.90872033 9.02231037 -2.71227657 11.68414862 -3 16 C-3.66 16 -4.32 16 -5 16 C-5.50212051 9.97455391 -4.12689062 6.14869539 -1 1 C-0.67 0.67 -0.34 0.34 0 0 Z " fill="#520365" transform="translate(83,96)"/>
<path d="M0 0 C0.66 0.99 1.32 1.98 2 3 C1.5390625 5.26171875 1.5390625 5.26171875 0.625 7.6875 C0.32851562 8.49574219 0.03203125 9.30398437 -0.2734375 10.13671875 C-0.51320313 10.75160156 -0.75296875 11.36648437 -1 12 C1.97 12.495 1.97 12.495 5 13 C4.01 14.485 4.01 14.485 3 16 C0.525 15.01 0.525 15.01 -2 14 C-2 13.34 -2 12.68 -2 12 C-2.66 12 -3.32 12 -4 12 C-3.45660208 7.43545749 -2.20536179 4.0271824 0 0 Z " fill="#60048E" transform="translate(110,37)"/>
<path d="M0 0 C3.71421404 4.59855071 6.53603697 8.92491435 6 15 C5.34 14.34 4.68 13.68 4 13 C4 11.68 4 10.36 4 9 C3.01 9.33 2.02 9.66 1 10 C0.34 9.67 -0.32 9.34 -1 9 C-1.125 2.25 -1.125 2.25 0 0 Z " fill="#AA3DA1" transform="translate(115,151)"/>
<path d="M0 0 C3.10753611 1.03584537 4.02036826 1.50394259 6 4 C7.74428992 8.13121297 8.21266983 11.53393347 8 16 C5.70351643 13.10414095 3.95652443 10.1827969 2.3125 6.875 C1.65701172 5.57175781 1.65701172 5.57175781 0.98828125 4.2421875 C0 2 0 2 0 0 Z " fill="#D374D6" transform="translate(73,148)"/>
<path d="M0 0 C2.875 1.4375 2.875 1.4375 4.25 3.5625 C4.45625 4.18125 4.6625 4.8 4.875 5.4375 C3.555 5.4375 2.235 5.4375 0.875 5.4375 C0.875 4.7775 0.875 4.1175 0.875 3.4375 C-0.775 4.0975 -2.425 4.7575 -4.125 5.4375 C-5.115 4.4475 -6.105 3.4575 -7.125 2.4375 C-4.52113026 -0.16636974 -3.72074309 -0.66973376 0 0 Z " fill="#590A9A" transform="translate(104.125,10.5625)"/>
<path d="M0 0 C3.44756956 1.21130822 5.49405626 2.38510218 8 5 C10.09989652 6.17574711 10.09989652 6.17574711 12 7 C10.02 7.99 10.02 7.99 8 9 C4.27885429 6.68462045 1.38770339 4.71420527 -1 1 C-0.67 0.67 -0.34 0.34 0 0 Z " fill="#CD65BB" transform="translate(96,190)"/>
<path d="M0 0 C1.5 1.0625 1.5 1.0625 3 3 C3.3125 6.5625 3.3125 6.5625 3 10 C2.34 10.66 1.68 11.32 1 12 C-1.97440393 7.45091164 -1.97440393 7.45091164 -3 5 C-2.32681681 2.67445808 -1.67512957 1.67512957 0 0 Z " fill="#B733A8" transform="translate(93,179)"/>
<path d="M0 0 C0.66 0.99 1.32 1.98 2 3 C2.99 2.34 3.98 1.68 5 1 C5 2.32 5 3.64 5 5 C4.01 5.33 3.02 5.66 2 6 C1.67 8.97 1.34 11.94 1 15 C-1 13 -1 13 -1.23046875 10.72265625 C-1.21628906 9.84480469 -1.20210937 8.96695313 -1.1875 8.0625 C-1.18105469 7.18722656 -1.17460938 6.31195313 -1.16796875 5.41015625 C-1 3 -1 3 0 0 Z " fill="#A5209B" transform="translate(48,83)"/>
<path d="M0 0 C2.1519437 3.22791555 2.20086443 4.28400809 2 8 C0.68 8.33 -0.64 8.66 -2 9 C-2 9.66 -2 10.32 -2 11 C-2.66 11 -3.32 11 -4 11 C-3.39301257 6.87248551 -1.96189209 3.6678852 0 0 Z " fill="#C25EBA" transform="translate(57,61)"/>
<path d="M0 0 C3.89006773 1.38780795 6.96558708 3.2152227 10.3125 5.625 C11.19550781 6.25664062 12.07851562 6.88828125 12.98828125 7.5390625 C13.65214844 8.02117188 14.31601563 8.50328125 15 9 C13 10 13 10 11.0546875 9.44140625 C9.97574219 9.00634766 9.97574219 9.00634766 8.875 8.5625 C8.15054688 8.27503906 7.42609375 7.98757812 6.6796875 7.69140625 C6.12539062 7.46324219 5.57109375 7.23507813 5 7 C5 6.01 5 5.02 5 4 C4.360625 3.896875 3.72125 3.79375 3.0625 3.6875 C2.381875 3.460625 1.70125 3.23375 1 3 C0.67 2.01 0.34 1.02 0 0 Z " fill="#9C6AC1" transform="translate(92,2)"/>
<path d="M0 0 C0.99 0 1.98 0 3 0 C2.34 2.97 1.68 5.94 1 9 C0.34 9 -0.32 9 -1 9 C-1 9.66 -1 10.32 -1 11 C-1.66 11 -2.32 11 -3 11 C-2.32829194 7.1936543 -1.27253436 3.64793184 0 0 Z " fill="#CF7EE8" transform="translate(114,54)"/>
<path d="M0 0 C0.66 0.33 1.32 0.66 2 1 C2 1.33 2 1.66 2 2 C3.32 2.33 4.64 2.66 6 3 C5.34 3 4.68 3 4 3 C3.67 3.99 3.34 4.98 3 6 C-0.5625 7.1875 -0.5625 7.1875 -4 8 C-2.87548273 5.0280615 -1.77706209 2.66559313 0 0 Z " fill="#C553B9" transform="translate(70,36)"/>
<path d="M0 0 C0.556875 0.33 1.11375 0.66 1.6875 1 C4.30284522 2.1309601 6.1806646 2.15662974 9 2 C9.33 3.98 9.66 5.96 10 8 C9.01 8 8.02 8 7 8 C6.67 7.34 6.34 6.68 6 6 C4.7625 5.566875 4.7625 5.566875 3.5 5.125 C1 4 1 4 0.1875 1.875 C0.125625 1.25625 0.06375 0.6375 0 0 Z " fill="#780ADB" transform="translate(63,15)"/>
<path d="M0 0 C0.66 0 1.32 0 2 0 C0.68938409 4.23429756 -0.94356259 8.07407404 -3 12 C-3.33 12 -3.66 12 -4 12 C-4 9.36 -4 6.72 -4 4 C-3.01 4 -2.02 4 -1 4 C-0.67 2.68 -0.34 1.36 0 0 Z " fill="#D767D4" transform="translate(93,70)"/>
<path d="M0 0 C3 2 3 2 5 5 C4.67 5.66 4.34 6.32 4 7 C4.66 7 5.32 7 6 7 C6.66 8.65 7.32 10.3 8 12 C7.34 12.66 6.68 13.32 6 14 C4.99515796 12.04414675 3.99626195 10.08523763 3 8.125 C2.1646875 6.48917969 2.1646875 6.48917969 1.3125 4.8203125 C0 2 0 2 0 0 Z " fill="#CE89CA" transform="translate(83,168)"/>
<path d="M0 0 C0.33 0.66 0.66 1.32 1 2 C1.99 2.33 2.98 2.66 4 3 C6.28341107 6.24484731 6.17615457 9.12459955 6 13 C2.84297684 9.09130466 0 5.1385061 0 0 Z " fill="#CA78C7" transform="translate(47,96)"/>
<path d="M0 0 C3 1 3 1 4.2421875 2.765625 C5.17394798 5.51287754 4.86156452 6.96742294 4.125 9.75 C3.92132813 10.54921875 3.71765625 11.3484375 3.5078125 12.171875 C3.34023437 12.77515625 3.17265625 13.3784375 3 14 C2.67 14 2.34 14 2 14 C1.93941406 13.24074219 1.87882813 12.48148438 1.81640625 11.69921875 C1.73261719 10.70535156 1.64882812 9.71148437 1.5625 8.6875 C1.48128906 7.70136719 1.40007812 6.71523438 1.31640625 5.69921875 C1.08187441 2.90624401 1.08187441 2.90624401 0 0 Z " fill="#C18DDF" transform="translate(149,40)"/>
<path d="M0 0 C0.33 0 0.66 0 1 0 C1.33 2.31 1.66 4.62 2 7 C1.01 7.33 0.02 7.66 -1 8 C-1.33 8.99 -1.66 9.98 -2 11 C-2.66 10.67 -3.32 10.34 -4 10 C-2.8905928 6.51329166 -1.73662334 3.22515763 0 0 Z " fill="#CE73EB" transform="translate(104,78)"/>
<path d="M0 0 C4.67105792 1.55701931 8.08705685 4.08447373 12 7 C11.01 7.66 10.02 8.32 9 9 C8.67 8.01 8.34 7.02 8 6 C7.01 6 6.02 6 5 6 C5 5.34 5 4.68 5 4 C4.360625 3.896875 3.72125 3.79375 3.0625 3.6875 C2.381875 3.460625 1.70125 3.23375 1 3 C0.67 2.01 0.34 1.02 0 0 Z " fill="#C67AE2" transform="translate(128,26)"/>
<path d="M0 0 C1.98 0 3.96 0 6 0 C6.33 0.66 6.66 1.32 7 2 C6.34 2 5.68 2 5 2 C4.67 2.99 4.34 3.98 4 5 C1.525 4.01 1.525 4.01 -1 3 C-0.67 2.01 -0.34 1.02 0 0 Z " fill="#800CEA" transform="translate(53,8)"/>
<path d="M0 0 C2.64465038 3.1254959 3.84414715 6.08788267 5 10 C1.83884224 8.63016497 1.0072908 8.0109362 -1 5 C-0.625 2.3125 -0.625 2.3125 0 0 Z " fill="#713779" transform="translate(94,109)"/>
<path d="M0 0 C0.33 0.99 0.66 1.98 1 3 C-1.75 3.75 -1.75 3.75 -5 4 C-7.375 2.0625 -7.375 2.0625 -9 0 C-3.375 -1.125 -3.375 -1.125 0 0 Z " fill="#9044D0" transform="translate(81,26)"/>
<path d="M0 0 C-0.33 0.66 -0.66 1.32 -1 2 C-2.65 1.67 -4.3 1.34 -6 1 C-6 1.66 -6 2.32 -6 3 C-8.64 3 -11.28 3 -14 3 C-9.7368213 0.15788087 -5.03577274 -2.0143091 0 0 Z " fill="#C08CE6" transform="translate(64,4)"/>
<path d="M0 0 C0.33 0 0.66 0 1 0 C1 2.31 1 4.62 1 7 C0.01 7.495 0.01 7.495 -1 8 C-1 7.34 -1 6.68 -1 6 C-1.99 5.67 -2.98 5.34 -4 5 C-3.67 3.68 -3.34 2.36 -3 1 C-2.34 1 -1.68 1 -1 1 C-0.67 0.67 -0.34 0.34 0 0 Z " fill="#B322B3" transform="translate(57,104)"/>
<path d="M0 0 C0.99 0.66 1.98 1.32 3 2 C2.01 5.3 1.02 8.6 0 12 C-0.66 11.67 -1.32 11.34 -2 11 C-2 9.68 -2 8.36 -2 7 C-1.34 7 -0.68 7 0 7 C0 4.69 0 2.38 0 0 Z " fill="#D464D5" transform="translate(86,80)"/>
<path d="M0 0 C0.66 0.66 1.32 1.32 2 2 C1.625 4.625 1.625 4.625 1 7 C0.01 7 -0.98 7 -2 7 C-2 7.99 -2 8.98 -2 10 C-2.66 10 -3.32 10 -4 10 C-2.8905928 6.51329166 -1.73662334 3.22515763 0 0 Z " fill="#C768BF" transform="translate(62,51)"/>
<path d="M0 0 C0.99 0.33 1.98 0.66 3 1 C2.67 1.99 2.34 2.98 2 4 C-1.3 4.33 -4.6 4.66 -8 5 C-5 2 -5 2 -2.3125 1.8125 C-1.549375 1.874375 -0.78625 1.93625 0 2 C0 1.34 0 0.68 0 0 Z " fill="#CC79CE" transform="translate(80,31)"/>
<path d="M0 0 C3.25543229 0.34879632 4.01873107 1.02133261 6.25 3.5625 C6.8275 4.366875 7.405 5.17125 8 6 C4.38462395 6 2.88834003 5.10770759 0 3 C0 2.01 0 1.02 0 0 Z " fill="#AF7ED4" transform="translate(46,7)"/>
<path d="M0 0 C4.10958767 1.45044271 7.43258745 3.51110752 11 6 C10.01 6.495 10.01 6.495 9 7 C6.375 6.0625 6.375 6.0625 4 5 C4 4.34 4 3.68 4 3 C3.01 3 2.02 3 1 3 C0.67 2.01 0.34 1.02 0 0 Z " fill="#D397E6" transform="translate(107,12)"/>
<path d="M0 0 C2.64 0 5.28 0 8 0 C8.33 0.66 8.66 1.32 9 2 C8.4225 2.12375 7.845 2.2475 7.25 2.375 C4.97664233 3.00648824 3.0746471 3.88858191 1 5 C0.67 3.35 0.34 1.7 0 0 Z " fill="#9048D0" transform="translate(83,0)"/>
<path d="M0 0 C2.15377564 2.62198774 3.40072174 4.64404172 4 8 C2.35 8 0.7 8 -1 8 C-0.67 5.36 -0.34 2.72 0 0 Z " fill="#C761BC" transform="translate(121,162)"/>
<path d="M0 0 C2.50298434 2.93828597 3.46930939 5.17902761 4 9 C3.01 9 2.02 9 1 9 C1 8.34 1 7.68 1 7 C0.34 6.67 -0.32 6.34 -1 6 C-0.34 6 0.32 6 1 6 C0.67 4.02 0.34 2.04 0 0 Z " fill="#8E3C8E" transform="translate(107,135)"/>
<path d="M0 0 C3 1 3 1 5 4 C5.125 7.1875 5.125 7.1875 5 10 C2.35534962 6.8745041 1.15585285 3.91211733 0 0 Z " fill="#D081D2" transform="translate(53,109)"/>
<path d="M0 0 C-0.33 2.31 -0.66 4.62 -1 7 C-1.99 7 -2.98 7 -4 7 C-4 5.02 -4 3.04 -4 1 C-2 0 -2 0 0 0 Z " fill="#D12CD0" transform="translate(84,88)"/>
<path d="M0 0 C0.33 0 0.66 0 1 0 C1 2.64 1 5.28 1 8 C-0.32 8.33 -1.64 8.66 -3 9 C-2.44271087 5.65626525 -1.64826111 2.96687001 0 0 Z " fill="#D57DEF" transform="translate(108,69)"/>
<path d="M0 0 C-0.99 2.97 -1.98 5.94 -3 9 C-3.33 9 -3.66 9 -4 9 C-4 6.36 -4 3.72 -4 1 C-2 0 -2 0 0 0 Z " fill="#BF7FE3" transform="translate(147,62)"/>
<path d="M0 0 C0.66 0 1.32 0 2 0 C2.33 1.32 2.66 2.64 3 4 C-0.66666667 4 -4.33333333 4 -8 4 C-8.33 3.34 -8.66 2.68 -9 2 C-6.03 2 -3.06 2 0 2 C0 1.34 0 0.68 0 0 Z " fill="#7B1CCE" transform="translate(58,5)"/>
<path d="M0 0 C2.64465038 3.1254959 3.84414715 6.08788267 5 10 C2 9 2 9 0.8125 7.25 C-0.10819096 4.70039426 -0.14948718 2.69076919 0 0 Z " fill="#D170C4" transform="translate(126,172)"/>
<path d="M0 0 C1.32 0.66 2.64 1.32 4 2 C3.67 3.32 3.34 4.64 3 6 C2.34 5.34 1.68 4.68 1 4 C0.34 4.99 -0.32 5.98 -1 7 C-2 4 -2 4 -1.0625 1.8125 C-0.5365625 0.9153125 -0.5365625 0.9153125 0 0 Z " fill="#AF33A2" transform="translate(92,176)"/>
<path d="M0 0 C0.99 0.33 1.98 0.66 3 1 C3.33 2.98 3.66 4.96 4 7 C2.68 6.67 1.36 6.34 0 6 C0 4.02 0 2.04 0 0 Z M-2 6 C0 7 0 7 0 7 Z " fill="#861E88" transform="translate(104,134)"/>
<path d="M0 0 C2 1.625 2 1.625 4 4 C4.25 7.25 4.25 7.25 4 10 C3.34 9.67 2.68 9.34 2 9 C1.66666667 6.66666667 1.33333333 4.33333333 1 2 C0.34 1.67 -0.32 1.34 -1 1 C-0.67 0.67 -0.34 0.34 0 0 Z " fill="#CB34C7" transform="translate(63,124)"/>
<path d="M0 0 C0.33 0 0.66 0 1 0 C1.1953125 6.0546875 1.1953125 6.0546875 1 8 C0.34 8.66 -0.32 9.32 -1 10 C-2.15837626 5.94568308 -1.83691257 3.78187881 0 0 Z " fill="#DA28D6" transform="translate(75,104)"/>
<path d="M0 0 C1.37562854 1.28965176 2.70766393 2.62689293 4 4 C4 4.66 4 5.32 4 6 C2.02 6 0.04 6 -2 6 C-1.34 4.02 -0.68 2.04 0 0 Z " fill="#642372" transform="translate(84,91)"/>
<path d="M0 0 C2.97 0.99 5.94 1.98 9 3 C8.01 4.485 8.01 4.485 7 6 C4.525 5.01 4.525 5.01 2 4 C2 3.34 2 2.68 2 2 C1.34 2 0.68 2 0 2 C0 1.34 0 0.68 0 0 Z " fill="#653A88" transform="translate(106,47)"/>
<path d="M0 0 C0.99 0.33 1.98 0.66 3 1 C3.33 2.65 3.66 4.3 4 6 C2.68 6 1.36 6 0 6 C0 4.02 0 2.04 0 0 Z " fill="#D369BE" transform="translate(136,194)"/>
<path d="M0 0 C3 1 3 1 4 3 C4.039992 4.99960012 4.04346799 7.00047242 4 9 C3.67 8.01 3.34 7.02 3 6 C2.34 5.67 1.68 5.34 1 5 C0.375 2.4375 0.375 2.4375 0 0 Z " fill="#CF36D7" transform="translate(74,145)"/>
<path d="M0 0 C1.32 1.32 2.64 2.64 4 4 C3.34 4 2.68 4 2 4 C2 4.66 2 5.32 2 6 C0.68 6 -0.64 6 -2 6 C-1.49396008 3.83125748 -1.00016187 2.00032373 0 0 Z " fill="#4D0A5F" transform="translate(90,106)"/>
<path d="M0 0 C0.66666667 2.66666667 1.33333333 5.33333333 2 8 C1.01 8.66 0.02 9.32 -1 10 C-1.33 7.69 -1.66 5.38 -2 3 C-1.34 3 -0.68 3 0 3 C0 2.01 0 1.02 0 0 Z " fill="#AC19A0" transform="translate(60,58)"/>
<path d="M0 0 C3.63 0.33 7.26 0.66 11 1 C11 1.33 11 1.66 11 2 C10.39671875 2.04898438 9.7934375 2.09796875 9.171875 2.1484375 C7.97304687 2.26058594 7.97304687 2.26058594 6.75 2.375 C5.56664063 2.47941406 5.56664063 2.47941406 4.359375 2.5859375 C1.914123 3.01507113 0.15163097 3.78600638 -2 5 C-1.34 3.35 -0.68 1.7 0 0 Z " fill="#B91EC1" transform="translate(83,33)"/>
<path d="M0 0 C0.99 0.33 1.98 0.66 3 1 C3 2.32 3 3.64 3 5 C3.99 5 4.98 5 6 5 C5.34 6.32 4.68 7.64 4 9 C0 2.25 0 2.25 0 0 Z " fill="#D48DCA" transform="translate(90,182)"/>
<path d="M0 0 C0.268125 0.61875 0.53625 1.2375 0.8125 1.875 C1.95556848 4.2995233 1.95556848 4.2995233 5 6 C5 6.66 5 7.32 5 8 C3.35 7.67 1.7 7.34 0 7 C0 4.69 0 2.38 0 0 Z " fill="#6C1076" transform="translate(96,119)"/>
<path d="M0 0 C1.32 0.33 2.64 0.66 4 1 C4 3.97 4 6.94 4 10 C2.33094759 6.66189518 1.1258614 3.53842155 0 0 Z " fill="#B030EA" transform="translate(117,24)"/>
<path d="M0 0 C3.37503669 1.1858237 5.64722731 2.27573689 8 5 C5.125 4.75 5.125 4.75 2 4 C0.625 1.9375 0.625 1.9375 0 0 Z " fill="#D687EC" transform="translate(119,20)"/>
</svg>
